<svg width="45" height="42" viewBox="0 0 45 42" fill="none" xmlns="http://www.w3.org/2000/svg">
<line x1="0.91875" y1="-0.91875" x2="26.9854" y2="-0.91875" transform="matrix(0.645556 -0.763713 0.768363 0.640014 1.28271 22.364)" stroke="#6C6C6C" stroke-width="1.8375" stroke-linecap="round"/>
<line x1="0.91875" y1="-0.91875" x2="26.9854" y2="-0.91875" transform="matrix(-0.645556 -0.763713 -0.768363 0.640014 43.5452 22.364)" stroke="#6C6C6C" stroke-width="1.8375" stroke-linecap="round"/>
<line x1="1.225" y1="-1.225" x2="26.6791" y2="-1.225" transform="matrix(0.645556 -0.763713 0.768363 0.640014 3.88062 29.843)" stroke="#6C6C6C" stroke-width="2.45" stroke-linecap="round"/>
<line x1="1.225" y1="-1.225" x2="26.6791" y2="-1.225" transform="matrix(-0.645556 -0.763713 -0.768363 0.640014 40.9473 29.843)" stroke="#6C6C6C" stroke-width="2.45" stroke-linecap="round"/>
<path d="M21.0579 16.5549C21.7916 15.6945 23.1208 15.6945 23.8544 16.5549L36.8597 31.8077C37.8768 33.0006 37.0291 34.8374 35.4614 34.8374H9.45092C7.88329 34.8374 7.03558 33.0006 8.05268 31.8077L21.0579 16.5549Z" fill="#6C6C6C"/>
</svg>
